<svg width="34" height="34" viewBox="0 0 34 34" fill="none" xmlns="http://www.w3.org/2000/svg">
<path d="M27 34H7C5.14413 33.9979 3.36489 33.2597 2.05259 31.9474C0.740295 30.6351 0.00211736 28.8559 0 27L0 7C0.00211736 5.14413 0.740295 3.36489 2.05259 2.05259C3.36489 0.740295 5.14413 0.00211736 7 0L27 0C28.8559 0.00211736 30.6351 0.740295 31.9474 2.05259C33.2597 3.36489 33.9979 5.14413 34 7V27C33.9979 28.8559 33.2597 30.6351 31.9474 31.9474C30.6351 33.2597 28.8559 33.9979 27 34ZM8 3C6.67441 3.00159 5.40356 3.52888 4.46622 4.46622C3.52888 5.40356 3.00159 6.67441 3 8V26C3.00159 27.3256 3.52888 28.5964 4.46622 29.5338C5.40356 30.4711 6.67441 30.9984 8 31H26C27.3257 30.9987 28.5967 30.4715 29.5341 29.5341C30.4715 28.5967 30.9987 27.3257 31 26V8C30.9984 6.67441 30.4711 5.40356 29.5338 4.46622C28.5964 3.52888 27.3256 3.00159 26 3H8Z" fill="white"/>
<path d="M17 26C15.22 26 13.4799 25.4722 11.9999 24.4832C10.5198 23.4943 9.36628 22.0887 8.68509 20.4442C8.0039 18.7996 7.82567 16.99 8.17294 15.2442C8.5202 13.4984 9.37737 11.8947 10.636 10.636C11.8947 9.37737 13.4984 8.5202 15.2442 8.17294C16.99 7.82567 18.7996 8.0039 20.4442 8.68509C22.0887 9.36628 23.4943 10.5198 24.4832 11.9999C25.4722 13.4799 26 15.22 26 17C25.9974 19.3861 25.0483 21.6738 23.361 23.361C21.6738 25.0483 19.3861 25.9974 17 26ZM17 11C15.8133 11 14.6533 11.3519 13.6666 12.0112C12.6799 12.6705 11.9109 13.6075 11.4567 14.7039C11.0026 15.8003 10.8838 17.0067 11.1153 18.1705C11.3468 19.3344 11.9182 20.4035 12.7574 21.2426C13.5965 22.0818 14.6656 22.6532 15.8295 22.8847C16.9933 23.1162 18.1997 22.9974 19.2961 22.5433C20.3925 22.0892 21.3295 21.3201 21.9888 20.3334C22.6481 19.3467 23 18.1867 23 17C22.9982 15.4093 22.3654 13.8842 21.2406 12.7594C20.1158 11.6346 18.5907 11.0019 17 11Z" fill="white"/>
<path d="M26 10C27.1046 10 28 9.10457 28 8C28 6.89543 27.1046 6 26 6C24.8954 6 24 6.89543 24 8C24 9.10457 24.8954 10 26 10Z" fill="white"/>
</svg>
