<svg width="174" height="106" viewBox="0 0 174 106" fill="none" xmlns="http://www.w3.org/2000/svg">
<g clip-path="url(#clip0_10_29)">
<path d="M65.7619 60.1498C77.383 60.1498 86.8038 56.2357 86.8038 51.4072C86.8038 46.5788 77.383 42.6646 65.7619 42.6646C54.1408 42.6646 44.7201 46.5788 44.7201 51.4072C44.7201 56.2357 54.1408 60.1498 65.7619 60.1498Z" stroke="#FFE284" stroke-width="4"/>
<path d="M41.1676 42.9378L36.7482 39.3063" stroke="white" stroke-width="2" stroke-linecap="round"/>
<path d="M43.8997 39.6593L43.2668 37.2294" stroke="white" stroke-width="2" stroke-linecap="round"/>
<path d="M38.2354 45.8812L35.8141 45.2142" stroke="white" stroke-width="2" stroke-linecap="round"/>
</g>
<path d="M12.8256 74.5845C12.6356 75.8669 12.398 77.0778 12.1131 78.2176C11.828 79.3099 11.543 80.2836 11.258 81.1387C11.0205 81.9458 10.8067 82.6107 10.6167 83.1331C10.4267 83.6555 10.3079 83.9407 10.2605 83.9877C9.78546 85.08 8.95417 85.6264 7.76659 85.6264C7.10156 85.6264 6.48402 85.3887 5.91403 84.9139C5.34399 84.3915 5.05898 83.7506 5.05898 82.9905C5.05898 82.7058 5.10648 82.4922 5.20148 82.3496C5.29649 82.2069 5.43898 81.9223 5.62901 81.4944C5.81899 81.0671 6.05651 80.3551 6.34153 79.3574C6.62656 78.3602 6.98279 76.8166 7.41035 74.7271C6.60278 74.7271 5.77149 74.7036 4.91647 74.656C4.06143 74.6085 3.27765 74.4424 2.56511 74.1572C1.80508 73.8725 1.18755 73.4212 0.712531 72.8037C0.23751 72.1863 0 71.3317 0 70.2394C0 69.4318 0.23751 68.3395 0.712531 66.9625C1.14005 65.585 1.73383 64.2316 2.49386 62.9021C3.25389 61.5722 4.10894 60.4323 5.05898 59.4827C6.00902 58.4855 6.95907 57.9866 7.90912 57.9866C9.00166 57.9866 9.88044 58.3904 10.5455 59.1974C11.258 60.005 11.8043 61.0023 12.1843 62.1896C12.5643 63.3294 12.8256 64.5403 12.9681 65.8227C13.1581 67.1052 13.2531 68.2209 13.2531 69.1706C14.0606 69.1706 14.8444 69.1706 15.6044 69.1706C16.412 69.1231 17.172 69.0996 17.8845 69.0996C20.5922 69.0996 22.6585 69.693 24.0836 70.8803C25.5086 72.0677 26.2212 74.0151 26.2212 76.722C26.2212 77.8143 26.1499 78.9541 26.0074 80.141C25.8649 81.3283 25.6987 82.5632 25.5086 83.8456C25.3186 85.08 25.1524 86.3149 25.0099 87.5498C24.8674 88.7847 24.7961 89.9955 24.7961 91.1829C24.7961 92.8926 25.0336 94.3171 25.5086 95.4569C25.9837 96.5492 26.5774 97.4279 27.29 98.0928C28.0025 98.7578 28.7625 99.2327 29.5701 99.5173C30.3776 99.755 31.1139 99.8736 31.7789 99.8736C33.8215 99.8736 35.7453 99.2086 37.5504 97.8792C39.3555 96.5492 41.0181 94.9586 42.5381 93.1063C44.0582 91.2064 45.412 89.212 46.5996 87.1225C47.8346 85.033 48.8559 83.2042 49.6635 81.637C49.901 81.2097 50.2335 80.8775 50.661 80.6398C51.0885 80.4021 51.5398 80.2836 52.0148 80.2836C52.8698 80.2836 53.5349 80.5688 54.0099 81.1387C54.4849 81.6611 54.7223 82.2545 54.7223 82.9195C54.7223 83.3943 54.6272 83.8216 54.4374 84.2019C53.3449 86.1488 52.0623 88.3574 50.5897 90.8266C49.1647 93.2489 47.5259 95.5285 45.6733 97.6655C43.8207 99.8026 41.7306 101.607 39.403 103.079C37.1229 104.551 34.6053 105.287 31.8501 105.287C30.1401 105.287 28.525 104.955 27.0049 104.29C25.4849 103.673 24.1548 102.771 23.0148 101.583C21.9222 100.348 21.0434 98.8529 20.3784 97.0956C19.7134 95.2908 19.3809 93.2724 19.3809 91.0403C19.3809 88.6661 19.6184 86.3149 20.0934 83.9877C20.5684 81.6135 20.8059 79.3574 20.8059 77.2204C20.8059 76.3182 20.5922 75.6533 20.1647 75.226C19.7846 74.7511 18.9059 74.5134 17.5283 74.5134C16.8633 74.5134 16.127 74.5134 15.3195 74.5134C14.5594 74.5134 13.7281 74.5375 12.8256 74.5845ZM8.05161 69.3132C8.05161 68.981 8.02783 68.5531 7.98034 68.0308C7.98034 67.4609 7.93284 66.915 7.83786 66.3926C7.79036 65.8703 7.69532 65.4189 7.55283 65.0392C7.45785 64.6589 7.33908 64.4692 7.1966 64.4692C7.05406 64.4692 6.86408 64.6589 6.62656 65.0392C6.43652 65.3714 6.22277 65.7987 5.98525 66.321C5.74777 66.7964 5.53402 67.3188 5.34399 67.8887C5.15398 68.4586 5.01147 68.9334 4.91647 69.3132H8.05161ZM82.5112 96.0268C81.3236 96.0268 80.2786 95.9318 79.3762 95.7422C78.6635 97.1667 77.8087 98.4966 76.8108 99.731C75.8133 100.918 74.6497 101.963 73.3195 102.866C72.0367 103.768 70.5884 104.48 68.9728 105.003C67.3578 105.525 65.6007 105.786 63.7003 105.786C61.4677 105.786 59.4253 105.383 57.5725 104.575C55.7197 103.815 54.1049 102.747 52.7274 101.37C51.3498 99.9452 50.281 98.259 49.521 96.3121C48.761 94.3171 48.3809 92.1326 48.3809 89.7584C48.3809 86.7187 48.9272 84.0828 50.0197 81.8507C51.1123 79.571 52.3711 77.6952 53.7961 76.2232C55.2213 74.7036 56.6461 73.5873 58.0715 72.8753C59.4963 72.1152 60.5654 71.7355 61.2775 71.7355C62.0853 71.7355 62.6788 71.9491 63.0592 72.3764C63.4866 72.8037 63.7003 73.3736 63.7003 74.0861C63.7003 74.8932 63.4391 75.5106 62.9166 75.9385C62.4416 76.3182 61.8241 76.698 61.0638 77.0778C60.3041 77.4581 59.4963 78.0039 58.6415 78.7165C57.7862 79.3814 56.979 80.236 56.2187 81.2808C55.506 82.3255 54.9125 83.5604 54.4374 84.9855C53.9624 86.41 53.7249 88.0011 53.7249 89.7584C53.7249 91.3255 53.9624 92.7975 54.4374 94.1751C54.9125 95.5045 55.6011 96.6683 56.504 97.6655C57.4064 98.6152 58.4749 99.3753 59.71 99.9452C60.9452 100.468 62.323 100.729 63.843 100.729C66.5505 100.729 68.7832 100.111 70.5408 98.8764C72.3455 97.594 73.7233 95.9793 74.6732 94.0324C71.8706 92.5599 69.5669 90.4704 67.7617 87.7634C65.9565 85.0565 65.0541 82.0173 65.0541 78.6454C65.0541 75.9385 65.6952 73.7299 66.9779 72.0201C68.3082 70.3104 70.0419 69.4558 72.1794 69.4558C73.4621 69.4558 74.6732 69.7645 75.8133 70.382C76.9534 70.9989 77.9509 71.9726 78.8062 73.3026C79.7085 74.632 80.4212 76.3417 80.9437 78.4318C81.4662 80.5213 81.7275 83.0145 81.7275 85.9111C81.7275 87.4312 81.5373 89.0218 81.1574 90.684C81.4422 90.7315 81.7274 90.7556 82.0122 90.7556C82.2975 90.7556 82.6063 90.7556 82.9386 90.7556C84.5536 90.7556 86.0025 90.5654 87.2852 90.1857C88.568 89.8054 89.7315 89.2355 90.7765 88.476C91.8215 87.7159 92.7479 86.7422 93.5557 85.5554C94.4105 84.368 95.2183 82.9905 95.978 81.4234C96.1206 81.1387 96.4294 80.8775 96.9044 80.6398C97.3793 80.3551 97.8542 80.2125 98.3292 80.2125C98.9468 80.2125 99.5168 80.4737 100.039 80.9961C100.609 81.4709 100.895 82.1119 100.895 82.9195C100.895 83.2992 100.8 83.7265 100.609 84.2019C100.42 84.6292 100.23 85.033 100.039 85.4128C99.2321 86.8373 98.2816 88.2148 97.1891 89.5442C96.1441 90.8266 94.8854 91.9664 93.413 92.9636C91.9877 93.9139 90.3726 94.6734 88.568 95.2433C86.7627 95.8132 84.7438 96.0744 82.5112 96.0268ZM70.3271 78.0755C70.3271 78.9776 70.4457 79.9273 70.6829 80.9251C70.9207 81.9223 71.277 82.9195 71.752 83.9167C72.2745 84.8663 72.8921 85.7925 73.6048 86.6952C74.3644 87.5498 75.2433 88.2858 76.2407 88.9032C76.3834 87.906 76.4544 86.9323 76.4544 85.9827C76.4544 84.7002 76.3599 83.3943 76.1697 82.0643C75.9795 80.7349 75.6947 79.524 75.3149 78.4318C74.982 77.2919 74.5546 76.3893 74.0321 75.7243C73.5097 75.0123 72.8921 74.656 72.1794 74.656C71.8946 74.656 71.5142 74.8697 71.0393 75.297C70.5643 75.7243 70.3271 76.6505 70.3271 78.0755ZM136.379 84.1303C135.856 85.2226 135.191 86.5285 134.383 88.0487C133.624 89.5207 132.745 91.0643 131.747 92.679C130.749 94.2936 129.633 95.9083 128.398 97.5229C127.163 99.09 125.809 100.515 124.337 101.797C122.912 103.032 121.368 104.029 119.706 104.789C118.09 105.596 116.356 106 114.504 106C111.654 106 109.208 105.121 107.165 103.364C105.122 101.607 103.389 99.3037 101.963 96.4541C100.538 93.6051 99.3742 90.3753 98.4718 86.7662C97.617 83.1096 96.9519 79.4049 96.477 75.6533C96.002 71.854 95.6692 68.1734 95.4795 64.6119C95.3369 61.0498 95.2653 57.8915 95.2653 55.137C95.2653 51.1479 95.3844 47.0162 95.6216 42.742C95.9069 38.4677 96.3343 34.2886 96.9044 30.2043C97.4744 26.1201 98.1871 22.2496 99.0419 18.5928C99.9442 14.9359 100.99 11.7303 102.177 8.97581C103.412 6.22134 104.813 4.03674 106.381 2.42204C107.948 0.807346 109.73 0 111.725 0C113.292 0 114.694 0.37993 115.929 1.13978C117.212 1.85215 118.28 3.03943 119.135 4.70162C119.99 6.36379 120.655 8.52464 121.13 11.1841C121.605 13.8437 121.843 17.0968 121.843 20.9435C121.843 25.6927 121.344 30.608 120.347 35.6896C119.349 40.7236 117.995 45.8052 116.285 50.9342C114.575 56.0632 112.556 61.1924 110.228 66.321C107.901 71.4027 105.407 76.3658 102.747 81.2097C103.935 87.2411 105.526 91.9899 107.521 95.4569C109.516 98.8764 111.915 100.586 114.718 100.586C116.618 100.586 118.446 99.8501 120.204 98.3775C121.962 96.8579 123.577 95.0772 125.05 93.0352C126.522 90.9927 127.805 88.9273 128.897 86.8373C130.037 84.7002 130.916 82.9905 131.533 81.7086C131.771 81.2332 132.103 80.8775 132.531 80.6398C132.959 80.3551 133.434 80.2125 133.956 80.2125C134.763 80.2125 135.405 80.4972 135.88 81.0671C136.402 81.637 136.664 82.2785 136.664 82.9905C136.664 83.2757 136.568 83.6555 136.379 84.1303ZM100.681 55.4933C100.681 58.533 100.752 61.4536 100.895 64.2556C101.037 67.0576 101.227 69.7405 101.465 72.3054C103.46 68.4586 105.36 64.3742 107.165 60.0526C108.97 55.6835 110.561 51.2903 111.939 46.8737C113.316 42.4095 114.409 37.9929 115.216 33.6237C116.072 29.207 116.499 25.004 116.499 21.0148C116.499 15.4109 116.048 11.3978 115.145 8.97581C114.243 6.55378 113.031 5.34276 111.511 5.34276C110.514 5.34276 109.54 6.03135 108.59 7.40859C107.687 8.78582 106.832 10.6618 106.024 13.0363C105.217 15.4109 104.481 18.2128 103.816 21.4422C103.151 24.6716 102.581 28.1384 102.106 31.8428C101.678 35.5471 101.322 39.4176 101.037 43.4543C100.8 47.4911 100.681 51.504 100.681 55.4933ZM140.155 96.0268C141.152 97.4044 142.435 98.5201 144.003 99.3753C145.57 100.182 147.494 100.586 149.774 100.586C152.102 100.586 154.216 100.04 156.116 98.9474C158.016 97.8076 159.749 96.3356 161.317 94.5308C162.885 92.7265 164.286 90.7081 165.521 88.476C166.756 86.2438 167.873 84.0118 168.87 81.7797C169.107 81.2573 169.44 80.8775 169.868 80.6398C170.295 80.3551 170.77 80.2125 171.292 80.2125C172.1 80.2125 172.741 80.4972 173.216 81.0671C173.739 81.637 174 82.2545 174 82.9195C174 83.1566 173.977 83.3708 173.929 83.5604C173.881 83.703 173.81 83.8691 173.715 84.0593C170.438 91.278 166.851 96.7153 162.956 100.372C159.108 104.029 154.738 105.905 149.846 106C146.71 106 144.003 105.383 141.722 104.148C139.442 102.961 137.566 101.417 136.094 99.5173C134.621 97.5705 133.529 95.3859 132.816 92.9636C132.103 90.5419 131.747 88.1197 131.747 85.6974C131.747 83.2757 132.032 81.0436 132.602 79.0011C133.22 76.9592 134.075 75.1784 135.167 73.6588C136.307 72.1387 137.638 70.9519 139.157 70.0968C140.725 69.2422 142.435 68.8143 144.288 68.8143C145.38 68.8143 146.449 69.052 147.494 69.5269C148.586 69.9542 149.56 70.5956 150.416 71.4502C151.27 72.2578 151.959 73.255 152.482 74.4424C153.004 75.6298 153.265 76.9832 153.265 78.5028C153.265 80.4497 152.933 82.2785 152.268 83.9877C151.603 85.6974 150.677 87.2886 149.489 88.7606C148.349 90.2332 146.971 91.5867 145.356 92.821C143.741 94.0559 142.008 95.1247 140.155 96.0268ZM138.017 91.3965C139.49 90.7791 140.82 89.9955 142.008 89.0459C143.243 88.0962 144.288 87.0509 145.143 85.9111C145.998 84.7718 146.663 83.5845 147.138 82.3496C147.613 81.0671 147.85 79.7852 147.85 78.5028C147.85 77.0778 147.494 76.0095 146.782 75.297C146.069 74.5375 145.238 74.1572 144.288 74.1572C143.005 74.1572 141.913 74.5134 141.01 75.226C140.107 75.9385 139.371 76.8641 138.801 78.0039C138.231 79.1437 137.804 80.4262 137.518 81.8507C137.281 83.2282 137.163 84.6052 137.163 85.9827C137.163 86.8373 137.234 87.7399 137.376 88.6896C137.566 89.6393 137.78 90.5419 138.017 91.3965ZM154.762 58.1292C155.047 58.5565 155.19 59.0078 155.19 59.4827C155.19 60.1001 154.952 60.646 154.477 61.1208C154.05 61.5957 153.503 61.8333 152.838 61.8333C152.031 61.8333 151.389 61.5246 150.914 60.9072L145.072 52.6439L139.086 60.9072C138.611 61.5246 137.994 61.8333 137.234 61.8333C136.568 61.8333 135.998 61.5957 135.524 61.1208C135.049 60.646 134.811 60.1001 134.811 59.4827C134.811 58.9128 134.978 58.4379 135.31 58.0576L143.29 47.2299C143.765 46.6125 144.406 46.3038 145.214 46.3038C146.021 46.3038 146.639 46.6363 147.066 47.3011L154.762 58.1292Z" fill="white"/>
<defs>
<clipPath id="clip0_10_29">
<rect width="54.1076" height="26.2279" fill="white" transform="translate(34.8823 36.1076)"/>
</clipPath>
</defs>
</svg>
